# xmcd
#
# Track frame offsets: 
#        183
#        22060
#        40203
#        59125
#        83665
#        101918
#        124928
#        141790
#        170608
#        187020
#        208703
#        222155
#        240353
#        261713
#        275430
#
# Disc length: 3960 seconds
#
# Revision: 7
# Processed by: cddbd v1.5.2PL0 Copyright (c) Steve Scherf et al.
# Submitted via: ExactAudioCopy v0.90b4
#
DISCID=ed0f760f
DTITLE=Paul Rodgers - Muddy Water Blues - A Tribute To Muddy Waters (D
DTITLE=isc 1)
DYEAR=1993
DGENRE=Blues
TTITLE0=Muddy Water Blues (Accoustic Version)
TTITLE1=Louisiana Blues
TTITLE2=I Can't Be Satisfied
TTITLE3=Rollin' Stone
TTITLE4=Good Morning Little School Girl (Part 1)
TTITLE5=I'm Your Hoochie Coochie Man
TTITLE6=She's Alright
TTITLE7=Standing Around Crying
TTITLE8=The Hunter
TTITLE9=She Moves Me
TTITLE10=I'm Ready
TTITLE11=I Just Want To Make Love To You
TTITLE12=Born Under A Bad Sign
TTITLE13=Good Morning Little School Girl (Part 2)
TTITLE14=Muddy Water Blues (Electric Version)
EXTD=YEAR: 1993
EXTT0=
EXTT1=
EXTT2=
EXTT3=
EXTT4=
EXTT5=
EXTT6=
EXTT7=
EXTT8=
EXTT9=
EXTT10=
EXTT11=
EXTT12=
EXTT13=
EXTT14=
PLAYORDER=
